<mxfile host="app.diagrams.net" modified="2021-07-22T09:11:57.863Z" agent="5.0 (Windows NT 10.0; WOW64) AppleWebKit/537.36 (KHTML, like Gecko) Chrome/87.0.4280.66 Safari/537.36" etag="9Ttc5TRR-GCLNuZ5iW7H" version="14.9.1" type="github">
  <diagram id="C5RBs43oDa-KdzZeNtuy" name="Page-1">
    <mxGraphModel dx="1182" dy="772" grid="1" gridSize="10" guides="1" tooltips="1" connect="1" arrows="1" fold="1" page="1" pageScale="1" pageWidth="827" pageHeight="1169" math="0" shadow="0">
      <root>
        <mxCell id="WIyWlLk6GJQsqaUBKTNV-0" />
        <mxCell id="WIyWlLk6GJQsqaUBKTNV-1" parent="WIyWlLk6GJQsqaUBKTNV-0" />
        <mxCell id="qw62MAh8Sn7VCw7q1j_K-2" value="" style="edgeStyle=orthogonalEdgeStyle;rounded=0;orthogonalLoop=1;jettySize=auto;html=1;" edge="1" parent="WIyWlLk6GJQsqaUBKTNV-1" source="qw62MAh8Sn7VCw7q1j_K-0" target="qw62MAh8Sn7VCw7q1j_K-1">
          <mxGeometry relative="1" as="geometry" />
        </mxCell>
        <mxCell id="qw62MAh8Sn7VCw7q1j_K-0" value="QMQ:&lt;span&gt;ctrip.hotel.product.roomprice.changed&lt;/span&gt;" style="rounded=1;whiteSpace=wrap;html=1;" vertex="1" parent="WIyWlLk6GJQsqaUBKTNV-1">
          <mxGeometry x="160" y="110" width="120" height="60" as="geometry" />
        </mxCell>
        <mxCell id="qw62MAh8Sn7VCw7q1j_K-7" value="" style="edgeStyle=orthogonalEdgeStyle;rounded=0;orthogonalLoop=1;jettySize=auto;html=1;" edge="1" parent="WIyWlLk6GJQsqaUBKTNV-1" source="qw62MAh8Sn7VCw7q1j_K-1" target="qw62MAh8Sn7VCw7q1j_K-6">
          <mxGeometry relative="1" as="geometry" />
        </mxCell>
        <mxCell id="qw62MAh8Sn7VCw7q1j_K-1" value="过滤得到房型id" style="rounded=1;whiteSpace=wrap;html=1;" vertex="1" parent="WIyWlLk6GJQsqaUBKTNV-1">
          <mxGeometry x="160" y="460" width="120" height="60" as="geometry" />
        </mxCell>
        <mxCell id="qw62MAh8Sn7VCw7q1j_K-3" value="&lt;div&gt;{&lt;/div&gt;&lt;div&gt;&lt;span&gt;	&lt;/span&gt;&quot;EffectDate&quot;: &quot;2022-01-01T00:00:00&quot;,&lt;/div&gt;&lt;div&gt;&lt;span&gt;	&lt;/span&gt;&quot;HotelID&quot;: 60089085,&lt;/div&gt;&lt;div&gt;&lt;span&gt;	&lt;/span&gt;&quot;MasterHotelID&quot;: 371184,&lt;/div&gt;&lt;div&gt;&lt;span&gt;	&lt;/span&gt;&quot;RoomTypeID&quot;: 832021954,&lt;/div&gt;&lt;div&gt;&lt;span&gt;	&lt;/span&gt;&quot;Submitter&quot;: &quot;InterfaceSwitch&quot;,&lt;/div&gt;&lt;div&gt;&lt;span&gt;	&lt;/span&gt;&quot;SubmitterType&quot;: &quot;V&quot;,&lt;/div&gt;&lt;div&gt;&lt;span&gt;	&lt;/span&gt;&quot;cost&quot;: 589.67,&lt;/div&gt;&lt;div&gt;&lt;span&gt;	&lt;/span&gt;&quot;mealNum&quot;: 2,&lt;/div&gt;&lt;div&gt;&lt;span&gt;	&lt;/span&gt;&quot;oldMealNum&quot;: 2,&lt;/div&gt;&lt;div&gt;&lt;span&gt;	&lt;/span&gt;&quot;oldcost&quot;: 589.84,&lt;/div&gt;&lt;div&gt;&lt;span&gt;	&lt;/span&gt;&quot;oldprice&quot;: 659,&lt;/div&gt;&lt;div&gt;&lt;span&gt;	&lt;/span&gt;&quot;payType&quot;: &quot;PP&quot;,&lt;/div&gt;&lt;div&gt;&lt;span&gt;	&lt;/span&gt;&quot;price&quot;: 659,&lt;/div&gt;&lt;div&gt;&lt;span&gt;	&lt;/span&gt;&quot;priceType&quot;: 1,&lt;/div&gt;&lt;div&gt;&lt;span&gt;	&lt;/span&gt;&quot;supplierid&quot;: 11009&lt;/div&gt;&lt;div&gt;}&lt;/div&gt;" style="text;html=1;strokeColor=none;fillColor=none;align=center;verticalAlign=middle;whiteSpace=wrap;rounded=0;" vertex="1" parent="WIyWlLk6GJQsqaUBKTNV-1">
          <mxGeometry x="220" y="240" width="160" height="140" as="geometry" />
        </mxCell>
        <mxCell id="qw62MAh8Sn7VCw7q1j_K-10" value="" style="edgeStyle=orthogonalEdgeStyle;rounded=0;orthogonalLoop=1;jettySize=auto;html=1;" edge="1" parent="WIyWlLk6GJQsqaUBKTNV-1" source="qw62MAh8Sn7VCw7q1j_K-6" target="qw62MAh8Sn7VCw7q1j_K-9">
          <mxGeometry relative="1" as="geometry" />
        </mxCell>
        <mxCell id="qw62MAh8Sn7VCw7q1j_K-6" value="&lt;p&gt;effective_order_flu&lt;/p&gt;" style="shape=cylinder;whiteSpace=wrap;html=1;boundedLbl=1;backgroundOutline=1;rounded=1;" vertex="1" parent="WIyWlLk6GJQsqaUBKTNV-1">
          <mxGeometry x="190" y="710" width="60" height="80" as="geometry" />
        </mxCell>
        <mxCell id="qw62MAh8Sn7VCw7q1j_K-8" value="查询是否有该房型的订单" style="text;html=1;strokeColor=none;fillColor=none;align=center;verticalAlign=middle;whiteSpace=wrap;rounded=0;" vertex="1" parent="WIyWlLk6GJQsqaUBKTNV-1">
          <mxGeometry x="240" y="585" width="90" height="55" as="geometry" />
        </mxCell>
        <mxCell id="qw62MAh8Sn7VCw7q1j_K-9" value="根据优先级创事件" style="rounded=1;whiteSpace=wrap;html=1;" vertex="1" parent="WIyWlLk6GJQsqaUBKTNV-1">
          <mxGeometry x="390" y="720" width="120" height="60" as="geometry" />
        </mxCell>
      </root>
    </mxGraphModel>
  </diagram>
</mxfile>
